<svg width="192" height="192" viewBox="0 0 192 192" fill="none" xmlns="http://www.w3.org/2000/svg">
<rect width="192" height="192" rx="48" fill="white"/>
<path d="M126.932 113.184V123.495C126.932 124.406 126.57 125.281 125.925 125.925C125.281 126.57 124.407 126.932 123.495 126.932H68.5052C67.5937 126.932 66.7195 126.57 66.075 125.925C65.4305 125.281 65.0684 124.406 65.0684 123.495V68.5052C65.0684 67.5937 65.4305 66.7195 66.075 66.075C66.7195 65.4305 67.5937 65.0684 68.5052 65.0684H123.495C124.407 65.0684 125.281 65.4305 125.925 66.075C126.57 66.7195 126.932 67.5937 126.932 68.5052V113.184Z" fill="#FFF0A3"/>
<path d="M126.932 89.1266V94.282C126.932 94.7377 126.57 95.1748 125.925 95.4971C125.281 95.8194 124.407 96.0004 123.495 96.0004H68.5052C67.5937 96.0004 66.7195 95.8194 66.075 95.4971C65.4305 95.1748 65.0684 94.7377 65.0684 94.282V66.7868C65.0684 66.331 65.4305 65.894 66.075 65.5717C66.7195 65.2494 67.5937 65.0684 68.5052 65.0684H123.495C124.407 65.0684 125.281 65.2494 125.925 65.5717C126.57 65.894 126.932 66.331 126.932 66.7868V89.1266Z" fill="url(#paint0_linear_2539_2)"/>
<path d="M49.3325 96H142.665" stroke="#FF5151" stroke-width="10" stroke-linecap="round" stroke-linejoin="round"/>
<path d="M36.0005 62.6664V42.6666C36.0005 40.8985 36.7029 39.2028 37.9531 37.9526C39.2033 36.7024 40.899 36 42.6671 36H62.6669" stroke="black" stroke-width="10" stroke-linecap="round" stroke-linejoin="round"/>
<path d="M155.999 62.6664V42.6666C155.999 40.8985 155.297 39.2028 154.047 37.9526C152.797 36.7024 151.101 36 149.333 36H129.333" stroke="black" stroke-width="10" stroke-linecap="round" stroke-linejoin="round"/>
<path d="M36.0005 129.334V149.334C36.0005 151.102 36.7029 152.798 37.9531 154.048C39.2033 155.298 40.899 156 42.6671 156H62.6669" stroke="black" stroke-width="10" stroke-linecap="round" stroke-linejoin="round"/>
<path d="M155.999 129.334V149.334C155.999 151.102 155.297 152.798 154.047 154.048C152.797 155.298 151.101 156 149.333 156H129.333" stroke="black" stroke-width="10" stroke-linecap="round" stroke-linejoin="round"/>
<defs>
<linearGradient id="paint0_linear_2539_2" x1="96.0002" y1="65.0684" x2="96.0002" y2="96.0004" gradientUnits="userSpaceOnUse">
<stop stop-color="#FFDB3A"/>
<stop offset="1" stop-color="#CCB858"/>
</linearGradient>
</defs>
</svg>
