<svg width="256" height="256" viewBox="0 0 256 256" fill="none" xmlns="http://www.w3.org/2000/svg">
<path d="M18.7453 237.255C37.4904 256.001 67.6603 256.001 128 256.001C188.34 256.001 218.511 256.001 237.255 237.255C256.001 218.511 256.001 188.34 256.001 128C256.001 67.6603 256.001 37.4904 237.255 18.7453C218.511 -1.90735e-06 188.34 0 128 0C67.6603 0 37.4904 -1.90735e-06 18.7453 18.7453C-1.90735e-06 37.4904 0 67.6603 0 128C0 188.34 -1.90735e-06 218.511 18.7453 237.255Z" fill="url(#paint0_linear_2534_10)"/>
<path d="M96.001 67.2002C101.303 67.2002 105.601 71.4981 105.602 76.7998C105.602 82.1017 101.303 86.4004 96.001 86.4004C73.0261 86.4006 54.4016 105.026 54.4014 128C54.4014 150.975 73.026 169.6 96.001 169.601C118.976 169.601 137.602 150.975 137.602 128C137.602 122.698 141.9 118.401 147.201 118.4C152.503 118.4 156.802 122.698 156.802 128C156.802 161.58 129.581 188.801 96.001 188.801C62.4222 188.801 35.2012 161.579 35.2012 128C35.2014 94.4213 62.4223 67.2004 96.001 67.2002ZM160.001 67.2002C193.58 67.2002 220.802 94.4212 220.802 128C220.802 161.58 193.581 188.801 160.001 188.801C154.699 188.801 150.401 184.502 150.401 179.2C150.402 173.899 154.699 169.601 160.001 169.601C182.976 169.601 201.602 150.975 201.602 128C201.601 105.025 182.976 86.4004 160.001 86.4004C137.026 86.4006 118.402 105.026 118.401 128C118.401 133.302 114.103 137.601 108.801 137.601C103.499 137.6 99.2012 133.302 99.2012 128C99.2014 94.4213 126.422 67.2004 160.001 67.2002Z" fill="#D8E8FF"/>
<defs>
<linearGradient id="paint0_linear_2534_10" x1="52.9583" y1="7.49897e-06" x2="303.323" y2="115.423" gradientUnits="userSpaceOnUse">
<stop stop-color="#0C73FF"/>
<stop offset="1" stop-color="#0270FF"/>
</linearGradient>
</defs>
</svg>
