<svg width="90" height="90" viewBox="0 0 90 90" fill="none" xmlns="http://www.w3.org/2000/svg">
<path d="M58.6 0C67.6 0 72.1 0 77 1.5C82.3 3.4 86.5 7.6 88.4 12.9C90 17.9 90 22.4 90 31.4V58.6C90 67.6 90 72.1 88.5 77C86.6 82.3 82.4 86.5 77.1 88.4C72.2 90 67.7 90 58.6 90H31.4C22.4 90 17.9 90 13 88.5C7.7 86.5 3.5 82.4 1.6 77C-1.19209e-07 72.2 0 67.7 0 58.6V31.4C0 22.4 0 17.9 1.5 13C3.5 7.7 7.7 3.5 13 1.6C17.9 -1.19209e-07 22.4 0 31.4 0H58.6Z" fill="url(#paint0_linear_2537_89)"/>
<path d="M20.6996 39.3002C17.3996 33.3002 16.0996 28.4002 16.0996 25.1002C16.0996 21.8002 16.8996 20.9002 17.6996 20.1002C18.4996 19.3002 22.1996 17.1002 22.8996 16.6002C23.4996 16.2002 25.8996 15.3002 27.3996 17.5002C28.8996 19.7002 31.6996 24.0002 33.6996 26.9002C36.7996 31.0002 34.2996 32.8002 33.4996 33.9002C31.9996 35.9002 31.1996 36.4002 31.1996 38.8002C31.1996 41.2002 37.9996 48.2002 39.5996 49.9002C41.1996 51.6002 47.9996 57.5002 50.0996 57.9002C52.1996 58.2002 55.0996 56.0002 55.6996 55.4002C58.7996 53.0002 60.4996 54.8002 61.8996 55.6002C63.2996 56.4002 69.6996 60.4002 71.6996 61.7002C73.5996 63.0002 73.3996 65.1002 73.3996 65.1002C73.3996 65.1002 72.0996 69.0002 69.0996 71.9002C68.3996 72.6002 67.0996 73.5002 63.9996 73.5002C60.8996 73.5002 57.4996 72.9002 49.4996 68.5002C42.9996 64.9002 36.7996 59.3002 33.4996 56.0002C30.1996 52.8002 24.4996 46.2002 20.6996 39.3002Z" fill="white"/>
<defs>
<linearGradient id="paint0_linear_2537_89" x1="45.025" y1="0.0400034" x2="45.025" y2="89.96" gradientUnits="userSpaceOnUse">
<stop stop-color="#83FB6D"/>
<stop offset="1" stop-color="#11D51D"/>
</linearGradient>
</defs>
</svg>
