<svg width="134" height="134" viewBox="0 0 134 134" fill="none" xmlns="http://www.w3.org/2000/svg">
<ellipse cx="66.7006" cy="66.5988" rx="66.6" ry="66.55" fill="white"/>
<path d="M66.6 0C29.8 0 0 29.8 0 66.6C0 94.8 17.5 118.9 42.3 128.6C41.7 123.3 41.2 115.3 42.5 109.5C43.7 104.3 50.3 76.4 50.3 76.4C50.3 76.4 48.3 72.4 48.3 66.5C48.3 57.2 53.7 50.3 60.3 50.3C66 50.3 68.7 54.6 68.7 59.7C68.7 65.4 65.1 74 63.2 81.9C61.6 88.5 66.5 93.9 73.1 93.9C84.9 93.9 94 81.4 94 63.4C94 47.5 82.5 36.3 66.2 36.3C47.3 36.3 36.1 50.5 36.1 65.2C36.1 70.9 38.3 77.1 41.1 80.4C41.6 81.1 41.7 81.6 41.6 82.3C41.1 84.4 40 88.9 39.8 89.8C39.5 91 38.8 91.3 37.6 90.7C29.3 86.8 24.1 74.7 24.1 64.9C24.1 43.9 39.4 24.6 68.1 24.6C91.2 24.6 109.1 41.1 109.1 63C109.1 85.9 94.6 104.4 74.6 104.4C67.9 104.4 61.5 100.9 59.3 96.8C59.3 96.8 56 109.5 55.2 112.6C53.7 118.4 49.6 125.6 46.9 130.1C53.1 132 59.7 133.1 66.6 133.1C103.4 133.1 133.2 103.3 133.2 66.5C133.2 29.8 103.4 0 66.6 0Z" fill="#E60023"/>
</svg>
