<svg width="296" height="296" viewBox="0 0 296 296" fill="none" xmlns="http://www.w3.org/2000/svg">
<path d="M295.44 147.72C295.44 163.38 294.26 179.04 291.6 194.1C283.62 244.03 244.03 283.62 194.1 291.6C179.03 294.26 163.37 295.44 147.72 295.44C132.07 295.44 116.4 294.26 101.34 291.6C51.41 283.62 11.82 244.03 3.84003 194.1C1.18003 179.03 0 163.37 0 147.72C0 132.07 1.18003 116.4 3.84003 101.34C11.82 51.41 51.41 11.82 101.34 3.84C116.41 1.18 132.07 0 147.72 0C163.37 0 179.04 1.18 194.1 3.84C244.03 11.82 283.62 51.41 291.6 101.34C294.26 116.41 295.44 132.07 295.44 147.72Z" fill="url(#paint0_linear_2533_16)"/>
<path d="M124.41 194.48H48.6701C43.6601 194.48 38.9101 191.85 36.6001 187.36C33.9701 182.23 34.9301 176.07 38.9701 172.03L91.6701 119.38C74.7201 117.41 35.5801 128.09 35.1201 100.59H104.89C109.9 100.59 114.65 103.22 116.96 107.71C119.59 112.84 118.63 119 114.59 123.04L61.8901 175.69H105.6C116 175.69 124.41 184.09 124.41 194.48Z" fill="white"/>
<path d="M223.101 99.8896C212.251 99.8896 202.491 104.57 195.821 112.07C174.841 86.9096 130.861 104.3 131.951 137.15V195.19C159.921 194.65 148.591 154.24 150.761 136.96C151.041 113.21 185.881 112.81 186.451 136.51V176.4C186.451 186.79 194.861 195.19 205.261 195.19V136.96C205.551 113.2 240.381 112.82 240.951 136.51V176.4C240.951 186.79 249.361 195.19 259.751 195.19C257.901 163.65 272.061 101.15 223.101 99.8896Z" fill="white"/>
<defs>
<linearGradient id="paint0_linear_2533_16" x1="69.25" y1="281.9" x2="225.41" y2="13.1" gradientUnits="userSpaceOnUse">
<stop stop-color="#0845BF"/>
<stop offset="0.19" stop-color="#0950DE"/>
<stop offset="0.38" stop-color="#0B59F6"/>
<stop offset="0.5" stop-color="#0B5CFF"/>
<stop offset="0.67" stop-color="#0E5EFE"/>
<stop offset="0.78" stop-color="#1665FC"/>
<stop offset="0.86" stop-color="#246FF9"/>
<stop offset="0.94" stop-color="#387FF4"/>
<stop offset="1" stop-color="#4F90EE"/>
</linearGradient>
</defs>
</svg>
